<svg width="29px" height="26px" viewBox="0 0 29 26" version="1.1" xmlns="http://www.w3.org/2000/svg" xmlns:xlink="http://www.w3.org/1999/xlink"><g id="购物车" stroke="none" stroke-width="1" fill="none" fill-rule="evenodd"><g id="1-购物车-空" transform="translate(-19.000000, -628.000000)"><g id="购物车" transform="translate(0.000000, 615.000000)"><g id="Group-10"><g id="Group-8" transform="translate(19.000000, 13.000000)"><g id="Group-2" transform="translate(1.000000, 1.000000)"><path d="M24.9220252,22.7549291 C24.9220252,23.299698 25.2137723,23.8030852 25.6873682,24.0754697 C26.1609641,24.3478541 26.7444583,24.3478541 27.2180542,24.0754697 C27.6916501,23.8030852 27.9833972,23.299698 27.9833972,22.7549291 C27.9833972,21.9127894 27.2980857,21.2301003 26.4527112,21.2301003 C25.6073367,21.2301003 24.9220252,21.9127894 24.9220252,22.7549291 Z" id="Shape" fill="currentColor" fill-rule="nonzero"></path><path d="M4.38550239,22.7549291 C4.38550239,23.5970688 5.07081386,24.2797579 5.9161884,24.2797579 C6.76156295,24.2797579 7.44687442,23.5970688 7.44687442,22.7549291 C7.44687442,21.9127894 6.76156295,21.2301003 5.9161884,21.2301003 C5.07081386,21.2301003 4.38550239,21.9127894 4.38550239,22.7549291 Z" id="Shape" fill="currentColor" fill-rule="nonzero"></path><path d="M4.18093983,2.42857143 L25.2388014,2.42857143 C25.907066,2.42857143 26.4488014,2.97030688 26.4488014,3.63857143 C26.4488014,3.72967345 26.4385128,3.82048406 26.4181311,3.90927689 L25.0524007,9.85908848 C24.575506,11.9366827 22.7955217,13.4576833 20.6689748,13.6047359 L6.68950373,14.5714286" id="Path-3" stroke="currentColor" stroke-width="1.21" fill="currentColor"></path><path d="M0.418093983,-7.10542736e-15 L3.11712729,-6.88338275e-15 C3.72549111,-6.99513737e-15 4.23926198,0.451699086 4.31716556,1.05505435 L6.14460083,15.208354 C6.45621514,17.6217751 8.51129862,19.4285714 10.9447539,19.4285714 L22.9951691,19.4285714" id="Path-2" stroke="currentColor" stroke-width="1.21" stroke-linecap="round" stroke-linejoin="round"></path></g></g></g></g></g></g></svg>