<!-- <svg xmlns="http://www.w3.org/2000/svg" xmlns:xlink="http://www.w3.org/1999/xlink" width="21px" height="19px" viewBox="0 0 21 19" version="1.1">
    <g fill="#fff">
        <path d="M8.98392237,17.5174449 C9.44590754,17.887742 9.81253262,18.171547 10.0414576,18.3436848 C10.1784307,18.446719 10.337911,18.5 10.4996845,18.5 C10.661871,18.5 10.8209262,18.4468425 10.9581885,18.3434765 C11.7314927,17.762619 12.9171498,16.8134845 14.1996849,15.6833854 C16.2764944,13.8534154 17.9266575,12.1332398 18.8689795,10.6943406 C20.0568968,8.88073003 20.5,7.85982379 20.5,6.28501989 C20.4999806,3.08882112 18.0667285,0.5 15.0927746,0.5 C13.464206,0.5 11.9232596,1.29064926 10.8980248,2.63912177 L10.499835,3.16285361 L10.1018543,2.63896278 C9.07738577,1.29038041 7.53687945,0.5 5.90722542,0.5 C2.93325093,0.5 0.5,3.08881988 0.5,6.28501686 C0.5,7.85984439 0.942858912,8.88056688 2.13033288,10.6943184 C3.10684928,12.1850071 4.83907725,13.9734993 7.00150455,15.8602468 L8.98392237,17.5174449 Z" id="Combined-Shape"/>
    </g>
</svg> -->


<svg xmlns="http://www.w3.org/2000/svg" xmlns:xlink="http://www.w3.org/1999/xlink" width="21px" height="19px" viewBox="0 0 21 19" version="1.1">
    <!-- Generator: Sketch 49 (51002) - http://www.bohemiancoding.com/sketch -->
    <defs/>
    <g id="商家页" stroke="none" stroke-width="1" fill="none" fill-rule="evenodd">
        <g id="1-商家页-大图模式" transform="translate(-339.000000, -32.000000)" fill-rule="nonzero" stroke="#FFFFFF">
            <g id="Group-6" transform="translate(339.000000, 32.000000)">
                <path d="M8.98392237,17.5174449 C9.44590754,17.887742 9.81253262,18.171547 10.0414576,18.3436848 C10.1784307,18.446719 10.337911,18.5 10.4996845,18.5 C10.661871,18.5 10.8209262,18.4468425 10.9581885,18.3434765 C11.7314927,17.762619 12.9171498,16.8134845 14.1996849,15.6833854 C16.2764944,13.8534154 17.9266575,12.1332398 18.8689795,10.6943406 C20.0568968,8.88073003 20.5,7.85982379 20.5,6.28501989 C20.4999806,3.08882112 18.0667285,0.5 15.0927746,0.5 C13.464206,0.5 11.9232596,1.29064926 10.8980248,2.63912177 L10.499835,3.16285361 L10.1018543,2.63896278 C9.07738577,1.29038041 7.53687945,0.5 5.90722542,0.5 C2.93325093,0.5 0.5,3.08881988 0.5,6.28501686 C0.5,7.85984439 0.942858912,8.88056688 2.13033288,10.6943184 C3.10684928,12.1850071 4.83907725,13.9734993 7.00150455,15.8602468 L8.98392237,17.5174449 Z" id="Combined-Shape"/>
            </g>
        </g>
    </g>
</svg>