<svg xmlns="http://www.w3.org/2000/svg" xmlns:xlink="http://www.w3.org/1999/xlink" width="22px" height="19px" viewBox="0 0 22 19" version="1.1">
    <!-- Generator: Sketch 49 (51002) - http://www.bohemiancoding.com/sketch -->
 
    <defs/>
    <g id="商家页" stroke="none" stroke-width="1" fill="none" fill-rule="evenodd">
        <g id="1-商家页-大图模式" transform="translate(-247.000000, -32.000000)" fill="#FFFFFF" fill-rule="nonzero">
            <g id="Group-7" transform="translate(247.000000, 32.000000)">
                <path d="M7.46313599,1.32615969 C11.8357466,0.371089512 16.1682352,3.25521232 17.139322,7.7698439 C18.1117688,12.2844755 15.3555961,16.7187299 10.9823055,17.6744755 C6.60901487,18.6288702 2.27720626,15.744072 1.30475944,11.2301158 C0.332992631,6.71548425 3.09052543,2.28190531 7.46313599,1.32615969 Z M21.8649531,18.0657057 L21.8649531,18.0657057 C22.1203985,17.6546873 22.0033532,17.1151034 21.6005656,16.8468674 L17.3708679,14.030104 C18.3626751,12.1141825 18.7189618,9.83260716 18.2237167,7.53337056 C17.1186354,2.40178845 12.193845,-0.878630189 7.22229615,0.207865403 C2.25074729,1.29370687 -0.883389837,6.33371197 0.221691504,11.4659482 C1.32677285,16.5988385 6.2515632,19.8786031 11.2231121,18.7921075 C13.365442,18.3244107 15.1666324,17.1208274 16.4343806,15.4933734 L20.6837426,18.3220503 C21.0706788,18.5796225 21.593156,18.4747523 21.8507282,18.0878161 C21.8555847,18.0805205 21.8603269,18.0731494 21.8649531,18.0657057 Z" id="Shape"/>
            </g>
        </g>
    </g>
</svg>