<svg width="18" height="18" viewBox="0 0 18 18" xmlns="http://www.w3.org/2000/svg"><g id="Symbols" fill="none" fill-rule="evenodd"><g id="基础页面弹窗导航" transform="translate(-15 -35)" fill-rule="nonzero" fill="currentColor"><g id="Group-2"><g id="-关闭箭头" transform="translate(15 35)"><path d="M8.25792424,8.99348808 L0.161636069,0.897199908 C-0.0389962189,0.689470079 -0.0361269391,0.359273015 0.168084957,0.155061119 C0.372296853,-0.0491507766 0.702493916,-0.0520200564 0.910223746,0.148612231 L9.00651192,8.2449004 L17.1028001,0.148612231 C17.3105299,-0.0520200564 17.640727,-0.0491507766 17.8449389,0.155061119 C18.0491508,0.359273015 18.0520201,0.689470079 17.8513878,0.897199908 L9.7550996,8.99348808 L17.8513878,17.0897763 C18.0520201,17.2975061 18.0491508,17.6277031 17.8449389,17.831915 C17.640727,18.0361269 17.3105299,18.0389962 17.1028001,17.8383639 L9.00651192,9.74207576 L0.910223746,17.8383639 C0.777302054,17.9759878 0.580465125,18.0311821 0.395367366,17.9827328 C0.210269606,17.9342835 0.0657165288,17.7897304 0.0172672065,17.6046326 C-0.0311821159,17.4195349 0.0240121571,17.2226979 0.161636069,17.0897763 L8.25792424,8.99348808 Z" id="Shape"></path></g></g></g></g></svg>